<svg xmlns="http://www.w3.org/2000/svg" width="36.123" height="51.344" viewBox="0 0 36.123 51.344">
  <path id="Health-Icon-SVG-09inc3" d="M239.239,119.824a5.905,5.905,0,0,0-5.859-5.9,16.1,16.1,0,0,0,2-7.727c0-6.833-4.2-9.574-6.621-10.586a2.239,2.239,0,0,0,.032-.319,2.29,2.29,0,1,0-.6,1.533c2.076.825,5.831,3.173,5.831,9.372a15.776,15.776,0,0,1-2.4,7.979A5.9,5.9,0,0,0,227.49,119a20.763,20.763,0,0,1-8.244,4.208c-9.591-2.476-14.767-10.591-14.767-17.014,0-7,4.781-9.087,6.535-9.62a2.27,2.27,0,1,0-.4-1.29c-2.071.664-7.5,3.144-7.5,10.91a17.44,17.44,0,0,0,5.189,12.059,23.362,23.362,0,0,0,10.26,6.183v12.314a7.61,7.61,0,1,0,15.221,0V125.708a5.9,5.9,0,0,0,5.453-5.884M226.176,143a6.255,6.255,0,0,1-6.248-6.248V124.438a23.043,23.043,0,0,0,7.56-3.8,5.9,5.9,0,0,0,4.935,5.016v11.095A6.255,6.255,0,0,1,226.176,143m7.156-20.9a2.272,2.272,0,1,1,2.272-2.272,2.272,2.272,0,0,1-2.272,2.272" transform="translate(-203.115 -93.016)"/>
</svg>
